<?xml version="1.0" encoding="UTF-8" standalone="no"?>
<!-- Created with Inkscape (http://www.inkscape.org/) -->

<svg
   width="2.0505209mm"
   height="2.0725694mm"
   viewBox="0 0 2.0505209 2.0725694"
   version="1.1"
   id="svg5310"
   inkscape:version="1.1.1 (3bf5ae0d25, 2021-09-20)"
   sodipodi:docname="200d.svg"
   xmlns:inkscape="http://www.inkscape.org/namespaces/inkscape"
   xmlns:sodipodi="http://sodipodi.sourceforge.net/DTD/sodipodi-0.dtd"
   xmlns="http://www.w3.org/2000/svg"
   xmlns:svg="http://www.w3.org/2000/svg">
  <sodipodi:namedview
     id="namedview5312"
     pagecolor="#ffffff"
     bordercolor="#666666"
     borderopacity="1.0"
     inkscape:pageshadow="2"
     inkscape:pageopacity="0.0"
     inkscape:pagecheckerboard="0"
     inkscape:document-units="mm"
     showgrid="false"
     inkscape:zoom="49.887766"
     inkscape:cx="1.9644095"
     inkscape:cy="4.0992014"
     inkscape:window-width="1868"
     inkscape:window-height="1016"
     inkscape:window-x="52"
     inkscape:window-y="27"
     inkscape:window-maximized="1"
     inkscape:current-layer="g5364" />
  <defs
     id="defs5307" />
  <g
     inkscape:label="Layer 1"
     inkscape:groupmode="layer"
     id="layer1"
     transform="translate(-165.63417,-155.44029)">
    <g
       id="g5364">
      <path
         style="fill:#ffff00;stroke-width:0.0220486;fill-opacity:1"
         d="m 166.56697,157.05498 0.004,-0.12641 -0.0905,-0.007 -0.0905,-0.007 0.0454,-0.18631 0.0454,-0.1863 h 0.11933 c 0.11341,0 0.11859,0.002 0.10458,0.0496 -0.0557,0.1874 -0.037,0.24806 0.0811,0.26263 0.06,0.007 0.0593,0.009 -0.0814,0.16695 l -0.14188,0.15948 z"
         id="path5370" />
      <path
         style="fill:#ff7f00;stroke-width:0.0220486;fill-opacity:1"
         d="m 166.39563,157.47742 c -0.0194,-0.0194 -0.0306,-0.0517 -0.0248,-0.0716 0.006,-0.0199 0.0168,-0.076 0.0243,-0.12446 0.008,-0.0485 0.0188,-0.11548 0.025,-0.14883 0.01,-0.0537 0.005,-0.0606 -0.047,-0.0606 -0.0853,0 -0.14378,-0.0388 -0.14243,-0.0945 6.6e-4,-0.0268 0.0232,-0.13316 0.05,-0.23624 0.0478,-0.18334 0.0504,-0.18757 0.12008,-0.19432 0.0832,-0.008 0.0818,-0.0174 0.0302,0.19432 l -0.0403,0.16536 0.0903,0.011 0.0903,0.011 -0.006,0.12818 -0.006,0.12817 0.14345,-0.16125 c 0.14219,-0.15984 0.14292,-0.16131 0.083,-0.16871 -0.11734,-0.0145 -0.13805,-0.0667 -0.09,-0.227 0.0228,-0.0761 0.0332,-0.0852 0.0969,-0.0852 0.0702,0 0.0711,0.001 0.0539,0.0772 l -0.0174,0.0772 h 0.11453 c 0.10499,0 0.16746,0.0262 0.16746,0.0703 0,0.01 -0.1121,0.144 -0.2491,0.29876 -0.137,0.15475 -0.27343,0.30956 -0.30317,0.34403 -0.0793,0.0919 -0.12151,0.10928 -0.16353,0.0673 z"
         id="path5368" />
      <path
         style="fill:#0000ff;stroke-width:0.0220486;fill-opacity:1"
         d="m 165.73706,157.48031 c -0.0181,-0.0181 -0.0289,-0.0504 -0.0241,-0.0718 0.005,-0.0214 0.0342,-0.15804 0.0654,-0.30356 0.0779,-0.36329 0.0936,-0.4079 0.14338,-0.4079 0.0827,0 0.0829,0.0658 0.001,0.42614 -0.0824,0.36296 -0.11575,0.42713 -0.18577,0.35711 z m 1.47328,0.002 c -0.0355,-0.026 -0.0355,-0.0375 2e-4,-0.20243 0.0208,-0.0962 0.055,-0.25502 0.0759,-0.35293 0.0209,-0.0979 0.0453,-0.1897 0.0541,-0.20395 0.0235,-0.038 0.10081,-0.0316 0.11661,0.01 0.0108,0.0282 -0.0906,0.5544 -0.13829,0.71764 -0.0148,0.0505 -0.0636,0.065 -0.10852,0.0321 z m -1.08008,-0.93973 c -0.15736,-0.009 -0.21586,-0.022 -0.2826,-0.0633 -0.37013,-0.22942 -0.21854,-0.79488 0.21657,-0.80787 0.0882,-0.003 0.12397,-0.0154 0.1687,-0.0601 0.21628,-0.21629 0.57758,-0.21367 0.78722,0.006 0.0342,0.0358 0.0794,0.10332 0.10051,0.15012 0.0379,0.0841 0.0394,0.0848 0.12019,0.0633 0.11409,-0.0305 0.23305,-0.003 0.3217,0.0752 0.17786,0.15616 0.15858,0.43184 -0.0406,0.58074 -0.0567,0.0424 -0.099,0.0462 -0.62702,0.0565 -0.31142,0.006 -0.65551,0.006 -0.76465,-1.6e-4 z"
         id="path5366" />
    </g>
  </g>
</svg>
