<?xml version="1.0" encoding="UTF-8" standalone="no"?>
<!-- Created with Inkscape (http://www.inkscape.org/) -->

<svg
   width="2.0505209mm"
   height="1.7638888mm"
   viewBox="0 0 2.0505209 1.7638888"
   version="1.1"
   id="svg5888"
   inkscape:version="1.1.1 (3bf5ae0d25, 2021-09-20)"
   sodipodi:docname="300d.svg"
   xmlns:inkscape="http://www.inkscape.org/namespaces/inkscape"
   xmlns:sodipodi="http://sodipodi.sourceforge.net/DTD/sodipodi-0.dtd"
   xmlns="http://www.w3.org/2000/svg"
   xmlns:svg="http://www.w3.org/2000/svg">
  <sodipodi:namedview
     id="namedview5890"
     pagecolor="#ffffff"
     bordercolor="#666666"
     borderopacity="1.0"
     inkscape:pageshadow="2"
     inkscape:pageopacity="0.0"
     inkscape:pagecheckerboard="0"
     inkscape:document-units="mm"
     showgrid="false"
     inkscape:zoom="70.551956"
     inkscape:cx="4.1246199"
     inkscape:cy="3.9049236"
     inkscape:window-width="1868"
     inkscape:window-height="1016"
     inkscape:window-x="52"
     inkscape:window-y="27"
     inkscape:window-maximized="1"
     inkscape:current-layer="g5942" />
  <defs
     id="defs5885" />
  <g
     inkscape:label="Layer 1"
     inkscape:groupmode="layer"
     id="layer1"
     transform="translate(-176.49588,-115.88148)">
    <g
       id="g5942">
      <path
         style="fill:#7f7fff;stroke-width:0.0220486;fill-opacity:1"
         d="m 176.79259,116.78849 c -0.0941,-0.0574 -0.14237,-0.14073 -0.14237,-0.24587 0,-0.19565 0.15265,-0.32486 0.35148,-0.29752 0.0994,0.0137 0.10647,0.011 0.16173,-0.0614 0.0673,-0.0883 0.22692,-0.17015 0.32991,-0.16926 0.0903,7.8e-4 0.25404,0.0831 0.30738,0.1546 0.0223,0.0298 0.0582,0.10385 0.0798,0.16449 0.0439,0.12292 0.0995,0.14982 0.18533,0.0897 0.10419,-0.073 0.25902,-0.0284 0.3156,0.0908 0.0465,0.098 0.026,0.18847 -0.0589,0.2599 l -0.0662,0.0557 -0.69836,-8e-5 c -0.64134,-8e-5 -0.70382,-0.003 -0.76544,-0.041 z"
         id="path5946" />
      <path
         style="fill:#0000fd;stroke-width:0.0220486"
         d="m 177.11682,117.626 c -0.0162,-0.0103 -0.0261,-0.0424 -0.022,-0.0713 0.006,-0.0394 0.0213,-0.0526 0.0623,-0.0526 0.0623,0 0.0859,0.0602 0.0435,0.11131 -0.0305,0.0367 -0.0428,0.0386 -0.0837,0.0126 z m 0.66146,0 c -0.0162,-0.0103 -0.0261,-0.0424 -0.0221,-0.0713 0.006,-0.0394 0.0213,-0.0526 0.0623,-0.0526 0.0624,0 0.0859,0.0602 0.0435,0.11131 -0.0305,0.0367 -0.0428,0.0386 -0.0837,0.0126 z m -0.89194,-0.36923 c -0.0292,-0.0292 -0.0158,-0.11374 0.0202,-0.12756 0.0489,-0.0188 0.10001,0.0281 0.092,0.0843 -0.007,0.0456 -0.0811,0.0744 -0.11221,0.0433 z m 0.58131,-0.0273 c -0.0289,-0.054 0.0206,-0.12638 0.0729,-0.10635 0.0508,0.0195 0.0681,0.0753 0.0355,0.11461 -0.037,0.0446 -0.0819,0.0412 -0.10838,-0.008 z m 0.59391,0.008 c -0.0326,-0.0393 -0.0153,-0.0951 0.0355,-0.11461 0.0522,-0.02 0.10177,0.0523 0.0728,0.10635 -0.0265,0.0495 -0.0713,0.0529 -0.10838,0.008 z m -1.24148,-0.28454 c -0.26336,-0.0726 -0.39846,-0.37316 -0.27373,-0.60902 0.0814,-0.15398 0.18922,-0.22671 0.35226,-0.23768 0.11267,-0.008 0.14939,-0.0204 0.20361,-0.0708 0.11849,-0.11032 0.22827,-0.15419 0.38585,-0.15419 0.21862,0 0.41132,0.12069 0.49737,0.31151 0.0286,0.0634 0.0488,0.0834 0.0741,0.0734 0.0976,-0.0387 0.1795,-0.0354 0.27578,0.0112 0.12837,0.0621 0.1932,0.15361 0.20642,0.29121 0.0138,0.14341 -0.0404,0.26216 -0.1562,0.34247 l -0.0889,0.0616 -0.68544,0.005 c -0.51267,0.004 -0.7121,-0.003 -0.79119,-0.0244 z m 1.50252,-0.17936 c 0.0849,-0.0714 0.1054,-0.16191 0.0589,-0.2599 -0.0566,-0.11923 -0.21141,-0.16377 -0.3156,-0.0908 -0.0859,0.0601 -0.14146,0.0332 -0.18533,-0.0897 -0.0216,-0.0606 -0.0576,-0.13466 -0.0798,-0.16449 -0.0533,-0.0714 -0.21711,-0.15382 -0.30738,-0.1546 -0.10299,-8.9e-4 -0.26259,0.081 -0.32991,0.16926 -0.0553,0.0724 -0.0623,0.0751 -0.16173,0.0614 -0.19883,-0.0273 -0.35148,0.10187 -0.35148,0.29752 0,0.10514 0.0483,0.18848 0.14237,0.24587 0.0616,0.0376 0.1241,0.0409 0.76544,0.041 l 0.69836,8e-5 z"
         id="path5944" />
    </g>
  </g>
</svg>
