<?xml version="1.0" encoding="UTF-8" standalone="no"?>
<!-- Created with Inkscape (http://www.inkscape.org/) -->

<svg
   width="2.0505209mm"
   height="2.0725694mm"
   viewBox="0 0 2.0505209 2.0725694"
   version="1.1"
   id="svg6235"
   inkscape:version="1.1.1 (3bf5ae0d25, 2021-09-20)"
   sodipodi:docname="500d.svg"
   xmlns:inkscape="http://www.inkscape.org/namespaces/inkscape"
   xmlns:sodipodi="http://sodipodi.sourceforge.net/DTD/sodipodi-0.dtd"
   xmlns="http://www.w3.org/2000/svg"
   xmlns:svg="http://www.w3.org/2000/svg">
  <sodipodi:namedview
     id="namedview6237"
     pagecolor="#ffffff"
     bordercolor="#666666"
     borderopacity="1.0"
     inkscape:pageshadow="2"
     inkscape:pageopacity="0.0"
     inkscape:pagecheckerboard="0"
     inkscape:document-units="mm"
     showgrid="false"
     inkscape:zoom="70.551956"
     inkscape:cx="3.8836627"
     inkscape:cy="4.1600548"
     inkscape:window-width="1868"
     inkscape:window-height="1016"
     inkscape:window-x="52"
     inkscape:window-y="27"
     inkscape:window-maximized="1"
     inkscape:current-layer="g6349" />
  <defs
     id="defs6232" />
  <g
     inkscape:label="Layer 1"
     inkscape:groupmode="layer"
     id="layer1"
     transform="translate(-126.26045,-144.918)">
    <g
       id="g6349">
      <path
         style="fill:#0000ff;stroke-width:0.0220486;fill-opacity:1"
         d="m 127.24261,146.95534 c -0.052,-0.052 -0.0409,-0.73151 0.0125,-0.76517 0.0196,-0.0123 0.0518,-0.0162 0.0717,-0.009 0.0314,0.0121 0.0361,0.062 0.0361,0.38859 0,0.34768 -0.003,0.37639 -0.0426,0.39752 -0.0322,0.0172 -0.0511,0.0142 -0.0777,-0.0124 z m -0.29424,-0.21172 c -0.0176,-0.0176 -0.0265,-0.11382 -0.0265,-0.28732 0,-0.22117 0.005,-0.26297 0.0361,-0.27471 0.0198,-0.008 0.0521,-0.004 0.0717,0.009 0.0531,0.0334 0.0638,0.49345 0.0127,0.54458 -0.0423,0.0423 -0.0589,0.0439 -0.0939,0.009 z m 0.59288,-0.004 c -0.0169,-0.0204 -0.0234,-0.11823 -0.0192,-0.29215 l 0.006,-0.26145 h 0.0551 0.0551 l 0.006,0.26145 c 0.006,0.24724 -0.008,0.32283 -0.0614,0.32283 -0.009,0 -0.0281,-0.0138 -0.0421,-0.0307 z m -1.04031,-0.77027 c -0.24338,-0.12849 -0.31037,-0.43531 -0.1442,-0.6604 0.0638,-0.0864 0.25459,-0.17534 0.35982,-0.16775 0.0665,0.005 0.0967,-0.006 0.14196,-0.0514 0.21677,-0.21676 0.57796,-0.21468 0.78747,0.005 0.0339,0.0355 0.0808,0.10374 0.10404,0.15161 0.0363,0.0747 0.0483,0.0839 0.0844,0.0645 0.0616,-0.033 0.25042,-0.008 0.317,0.0414 0.10438,0.0779 0.1452,0.154 0.15458,0.28806 0.007,0.10625 3.6e-4,0.13963 -0.0432,0.20372 -0.0286,0.0421 -0.0856,0.0992 -0.12648,0.12678 -0.0737,0.0496 -0.0815,0.0501 -0.8063,0.0501 -0.72362,0 -0.73299,-5.8e-4 -0.82907,-0.0513 z"
         id="path6351" />
    </g>
  </g>
</svg>
