<?xml version="1.0" encoding="UTF-8" standalone="no"?>
<!-- Created with Inkscape (http://www.inkscape.org/) -->

<svg
   width="2.0505209mm"
   height="2.0725694mm"
   viewBox="0 0 2.0505209 2.0725694"
   version="1.1"
   id="svg7338"
   inkscape:version="1.1.1 (3bf5ae0d25, 2021-09-20)"
   sodipodi:docname="520d.svg"
   xmlns:inkscape="http://www.inkscape.org/namespaces/inkscape"
   xmlns:sodipodi="http://sodipodi.sourceforge.net/DTD/sodipodi-0.dtd"
   xmlns="http://www.w3.org/2000/svg"
   xmlns:svg="http://www.w3.org/2000/svg">
  <sodipodi:namedview
     id="namedview7340"
     pagecolor="#ffffff"
     bordercolor="#666666"
     borderopacity="1.0"
     inkscape:pageshadow="2"
     inkscape:pageopacity="0.0"
     inkscape:pagecheckerboard="0"
     inkscape:document-units="mm"
     showgrid="false"
     inkscape:zoom="70.551956"
     inkscape:cx="5.2443621"
     inkscape:cy="4.9112742"
     inkscape:window-width="1868"
     inkscape:window-height="1016"
     inkscape:window-x="52"
     inkscape:window-y="27"
     inkscape:window-maximized="1"
     inkscape:current-layer="g7452" />
  <defs
     id="defs7335" />
  <g
     inkscape:label="Layer 1"
     inkscape:groupmode="layer"
     id="layer1"
     transform="translate(-125.92103,-155.44029)">
    <g
       id="g7452">
      <path
         style="fill:#0000ff;stroke-width:0.0220486;fill-opacity:1"
         d="m 126.30788,157.47763 c -0.052,-0.052 -0.0409,-0.73151 0.0125,-0.76517 0.0196,-0.0123 0.0518,-0.0162 0.0717,-0.009 0.0314,0.0121 0.0361,0.062 0.0361,0.38859 0,0.34768 -0.003,0.37639 -0.0426,0.39752 -0.0322,0.0172 -0.0511,0.0142 -0.0777,-0.0124 z m 0.5877,0.009 c -0.0185,-0.0185 -0.0265,-0.13832 -0.0265,-0.39757 0,-0.32323 0.005,-0.37289 0.0361,-0.38495 0.0198,-0.008 0.0521,-0.004 0.0717,0.009 0.0535,0.0337 0.0646,0.71315 0.0125,0.76522 -0.0421,0.0421 -0.0588,0.0437 -0.0938,0.009 z m 0.59306,-0.004 c -0.0174,-0.0209 -0.0234,-0.14681 -0.0192,-0.40238 l 0.006,-0.37191 h 0.0551 0.0551 l 0.006,0.37191 c 0.006,0.3555 -0.005,0.43286 -0.0612,0.43286 -0.009,0 -0.028,-0.0137 -0.0419,-0.0305 z m -0.88212,-0.22069 c -0.0169,-0.0204 -0.0234,-0.11823 -0.0192,-0.29215 l 0.006,-0.26145 h 0.0551 0.0551 l 0.006,0.26145 c 0.006,0.24724 -0.008,0.32283 -0.0614,0.32283 -0.009,0 -0.0281,-0.0138 -0.0421,-0.0307 z m 0.58314,-0.005 c -0.0511,-0.0511 -0.0404,-0.51114 0.0127,-0.54454 0.0196,-0.0123 0.0518,-0.0162 0.0717,-0.009 0.0306,0.0118 0.0361,0.0538 0.0361,0.27834 0,0.23877 -0.004,0.26672 -0.0426,0.28729 -0.0322,0.0172 -0.0511,0.0142 -0.0779,-0.0125 z m -1.01507,-0.74886 c -0.0921,-0.0478 -0.17921,-0.13509 -0.21947,-0.21993 -0.0709,-0.14943 -0.0264,-0.3935 0.0912,-0.49979 0.0695,-0.0628 0.24756,-0.13118 0.32456,-0.12454 0.0568,0.005 0.093,-0.0113 0.16722,-0.0748 0.24322,-0.20818 0.56522,-0.18851 0.7785,0.0476 0.0443,0.0491 0.0869,0.11426 0.0946,0.14483 0.0133,0.0529 0.0195,0.0549 0.12927,0.042 0.14555,-0.0171 0.29071,0.0417 0.36705,0.14875 0.0789,0.11061 0.0759,0.3126 -0.006,0.42032 -0.1127,0.14776 -0.12812,0.15023 -0.93613,0.15007 -0.6124,-1.1e-4 -0.73449,-0.005 -0.79042,-0.0345 z"
         id="path7454" />
    </g>
  </g>
</svg>
