<?xml version="1.0" encoding="UTF-8" standalone="no"?>
<!-- Created with Inkscape (http://www.inkscape.org/) -->

<svg
   width="2.0505209mm"
   height="1.984375mm"
   viewBox="0 0 2.0505209 1.984375"
   version="1.1"
   id="svg7679"
   inkscape:version="1.1.1 (3bf5ae0d25, 2021-09-20)"
   sodipodi:docname="600d.svg"
   inkscape:export-filename="/home/ondiiik/Development/micropython/meteo/meteo_py/graphics/bitmap/png/acep/600d.png"
   inkscape:export-xdpi="1489.48"
   inkscape:export-ydpi="1489.48"
   xmlns:inkscape="http://www.inkscape.org/namespaces/inkscape"
   xmlns:sodipodi="http://sodipodi.sourceforge.net/DTD/sodipodi-0.dtd"
   xmlns="http://www.w3.org/2000/svg"
   xmlns:svg="http://www.w3.org/2000/svg">
  <sodipodi:namedview
     id="namedview7681"
     pagecolor="#ffffff"
     bordercolor="#666666"
     borderopacity="1.0"
     inkscape:pageshadow="2"
     inkscape:pageopacity="0.0"
     inkscape:pagecheckerboard="0"
     inkscape:document-units="mm"
     showgrid="false"
     inkscape:zoom="99.775533"
     inkscape:cx="3.648189"
     inkscape:cy="3.8736952"
     inkscape:window-width="1868"
     inkscape:window-height="1016"
     inkscape:window-x="52"
     inkscape:window-y="27"
     inkscape:window-maximized="1"
     inkscape:current-layer="g7793" />
  <defs
     id="defs7676" />
  <g
     inkscape:label="Layer 1"
     inkscape:groupmode="layer"
     id="layer1"
     transform="translate(-108.9496,-155.14496)">
    <g
       id="g7793">
      <path
         style="fill:#ffff00;stroke-width:0.0220486;fill-opacity:1"
         d="m 109.40529,156.98707 c -0.0388,-0.0294 -0.0386,-0.0316 0.006,-0.0552 0.0409,-0.0219 0.0459,-0.0185 0.0459,0.0313 0,0.0646 0.001,0.0639 -0.0514,0.0239 z m 0.88194,0 c -0.0388,-0.0294 -0.0386,-0.0316 0.006,-0.0552 0.0409,-0.0219 0.0459,-0.0185 0.0459,0.0313 0,0.0646 0.001,0.0639 -0.0514,0.0239 z m 0.20577,-0.0212 c 0,-0.0526 0.005,-0.0561 0.046,-0.034 0.0253,0.0135 0.0426,0.0266 0.0386,0.0291 -0.004,0.002 -0.0248,0.0177 -0.046,0.034 -0.0345,0.0264 -0.0386,0.0233 -0.0386,-0.0291 z m -0.88194,-0.0129 c 0,-0.0289 0.0107,-0.0386 0.0331,-0.03 0.0182,0.007 0.0331,0.0205 0.0331,0.03 0,0.01 -0.0149,0.023 -0.0331,0.03 -0.0224,0.009 -0.0331,-0.001 -0.0331,-0.03 z m -0.31845,-0.1819 c 0.0209,-0.068 0.0259,-0.071 0.0646,-0.0388 0.0302,0.0251 0.0297,0.0312 -0.005,0.0576 -0.0572,0.0434 -0.0768,0.0372 -0.0596,-0.0187 z m 0.42119,0.0221 c -0.0371,-0.0273 -0.0376,-0.0324 -0.005,-0.0594 0.0434,-0.036 0.0626,-0.0207 0.0528,0.0422 -0.006,0.0417 -0.012,0.0437 -0.0479,0.0173 z m 0.47052,-0.0274 c 0,-0.0604 0.0254,-0.0714 0.0623,-0.0268 0.0175,0.0211 0.0126,0.0354 -0.0194,0.0553 -0.0383,0.0239 -0.043,0.0208 -0.043,-0.0285 z m 0.41142,0.0274 c -0.0371,-0.0273 -0.0375,-0.0324 -0.005,-0.0594 0.0434,-0.036 0.0626,-0.0207 0.0528,0.0422 -0.006,0.0417 -0.012,0.0437 -0.0479,0.0173 z m -1.18888,-0.20254 c -0.0347,-0.0256 -0.0352,-0.0317 -0.005,-0.0568 0.0413,-0.0343 0.0609,-0.0186 0.0511,0.041 -0.006,0.0384 -0.0126,0.0406 -0.0461,0.0158 z m 0.88037,-3.7e-4 c -0.0388,-0.0294 -0.0386,-0.0316 0.006,-0.0552 0.0409,-0.0219 0.0459,-0.0185 0.0459,0.0313 0,0.0646 0.001,0.0639 -0.0514,0.0239 z m -0.67617,-0.0499 c 0,-0.0551 0.003,-0.057 0.0357,-0.0242 0.0196,0.0196 0.029,0.0465 0.0208,0.0598 -0.0271,0.0438 -0.0564,0.0252 -0.0564,-0.0357 z m 0.88194,0.0183 c 0,-0.0317 0.0102,-0.0413 0.034,-0.0322 0.0376,0.0144 0.033,0.0551 -0.008,0.0687 -0.0145,0.005 -0.0262,-0.0114 -0.0262,-0.0365 z"
         id="path7797" />
      <path
         style="fill:#0000ff;stroke-width:0.0220486;fill-opacity:1"
         d="m 109.4701,157.09446 c -0.007,-0.0192 -0.0134,-0.0686 -0.0134,-0.10989 v -0.075 l -0.0752,0.0359 c -0.15056,0.0718 -0.20907,-0.0445 -0.0651,-0.12946 l 0.0802,-0.0473 -0.0526,-0.0401 c -0.0998,-0.0761 -0.11019,-0.0884 -0.10347,-0.12248 0.0137,-0.0694 0.0739,-0.0822 0.14592,-0.0309 l 0.0678,0.0483 0.007,-0.10535 c 0.006,-0.0919 0.0134,-0.1063 0.0594,-0.1128 0.0634,-0.009 0.0899,0.0272 0.0904,0.1232 3.9e-4,0.083 0.005,0.0846 0.0923,0.0331 0.0631,-0.037 0.0669,-0.0369 0.0962,0.003 0.038,0.0517 0.009,0.11508 -0.0683,0.15041 -0.0701,0.0319 -0.0678,0.0507 0.0117,0.0977 0.0774,0.0457 0.0992,0.0902 0.0645,0.13199 -0.0331,0.0398 -0.0753,0.0382 -0.14178,-0.005 -0.0538,-0.0353 -0.0543,-0.035 -0.0543,0.0345 0,0.0386 -0.0103,0.0893 -0.0228,0.11278 -0.0275,0.0514 -0.0995,0.0562 -0.11813,0.008 z m 0.88195,0 c -0.007,-0.0192 -0.0134,-0.0686 -0.0134,-0.10989 v -0.075 l -0.0752,0.0359 c -0.15056,0.0718 -0.20908,-0.0445 -0.0651,-0.12946 l 0.0802,-0.0473 -0.0526,-0.0401 c -0.0998,-0.0761 -0.11019,-0.0884 -0.10347,-0.12248 0.0137,-0.0694 0.0739,-0.0822 0.14592,-0.0309 l 0.0678,0.0483 0.007,-0.10535 c 0.006,-0.0919 0.0134,-0.1063 0.0594,-0.1128 0.0634,-0.009 0.0899,0.0272 0.0904,0.1232 3.9e-4,0.083 0.005,0.0846 0.0923,0.0331 0.0631,-0.037 0.0669,-0.0369 0.0963,0.003 0.038,0.0517 0.009,0.11508 -0.0683,0.15041 -0.07,0.0319 -0.0678,0.0507 0.0117,0.0977 0.0774,0.0457 0.0992,0.0902 0.0645,0.13199 -0.0331,0.0398 -0.0753,0.0382 -0.14177,-0.005 -0.0538,-0.0353 -0.0543,-0.035 -0.0543,0.0345 0,0.0386 -0.0103,0.0893 -0.0228,0.11278 -0.0275,0.0514 -0.0995,0.0562 -0.11813,0.008 z m -1.13771,-0.88219 c -0.165,-0.0716 -0.26474,-0.22446 -0.26474,-0.40585 0,-0.25001 0.19377,-0.44097 0.44744,-0.44097 0.075,0 0.1078,-0.0126 0.14954,-0.0573 0.0776,-0.0831 0.2078,-0.14322 0.33973,-0.15684 0.21312,-0.022 0.41514,0.0827 0.52076,0.26985 l 0.0635,0.11246 0.12896,-0.009 c 0.15381,-0.0111 0.23821,0.0251 0.32563,0.13968 0.13277,0.17408 0.0726,0.43385 -0.12358,0.53377 -0.0951,0.0485 -0.11395,0.0496 -0.80381,0.0488 -0.58096,-7.1e-4 -0.72007,-0.007 -0.78341,-0.0343 z"
         id="path7795" />
    </g>
  </g>
</svg>
