<?xml version="1.0" encoding="UTF-8" standalone="no"?>
<!-- Created with Inkscape (http://www.inkscape.org/) -->

<svg
   width="2.0725694mm"
   height="1.6977431mm"
   viewBox="0 0 2.0725694 1.6977431"
   version="1.1"
   id="svg8084"
   inkscape:version="1.1.1 (3bf5ae0d25, 2021-09-20)"
   sodipodi:docname="701d.svg"
   xmlns:inkscape="http://www.inkscape.org/namespaces/inkscape"
   xmlns:sodipodi="http://sodipodi.sourceforge.net/DTD/sodipodi-0.dtd"
   xmlns="http://www.w3.org/2000/svg"
   xmlns:svg="http://www.w3.org/2000/svg">
  <sodipodi:namedview
     id="namedview8086"
     pagecolor="#ffffff"
     bordercolor="#666666"
     borderopacity="1.0"
     inkscape:pageshadow="2"
     inkscape:pageopacity="0.0"
     inkscape:pagecheckerboard="0"
     inkscape:document-units="mm"
     showgrid="false"
     inkscape:zoom="70.551956"
     inkscape:cx="4.3230552"
     inkscape:cy="3.0403126"
     inkscape:window-width="1868"
     inkscape:window-height="1016"
     inkscape:window-x="52"
     inkscape:window-y="27"
     inkscape:window-maximized="1"
     inkscape:current-layer="g8198" />
  <defs
     id="defs8081" />
  <g
     inkscape:label="Layer 1"
     inkscape:groupmode="layer"
     id="layer1"
     transform="translate(-89.930573,-159.02199)">
    <g
       id="g8198">
      <path
         style="fill:#7f7fff;stroke-width:0.0220486;fill-opacity:1"
         d="m 90.208714,159.92404 c -0.124536,-0.098 -0.15834,-0.26085 -0.0806,-0.38835 0.06346,-0.10408 0.160932,-0.14673 0.302062,-0.13216 0.11426,0.0118 0.11803,0.0103 0.183134,-0.0719 0.209615,-0.26466 0.616476,-0.18029 0.704355,0.14607 0.0377,0.14 0.07118,0.15602 0.199988,0.0957 0.09565,-0.0448 0.116069,-0.0474 0.176313,-0.0224 0.160532,0.0665 0.20481,0.24025 0.09038,0.35468 l -0.06445,0.0644 h -0.726327 c -0.703178,0 -0.728193,-0.001 -0.784862,-0.046 z"
         id="path8202" />
      <path
         style="fill:#0000ff;stroke-width:0.0220486;fill-opacity:1"
         d="m 90.266814,160.70513 c -0.03952,-0.016 -0.03405,-0.11048 0.0073,-0.12635 0.04552,-0.0175 1.339933,-0.0175 1.385456,0 0.04521,0.0173 0.04521,0.11022 0,0.12757 -0.04161,0.016 -1.353028,0.0148 -1.392772,-10e-4 z m -0.173829,-0.32689 c -0.007,-0.0183 -0.007,-0.0483 0,-0.0667 0.01117,-0.0291 0.122827,-0.0326 0.878791,-0.0276 l 0.866002,0.006 v 0.0551 0.0551 l -0.866002,0.006 c -0.755964,0.005 -0.867626,0.002 -0.878791,-0.0276 z m 0.08368,-0.30587 c -0.166299,-0.087 -0.241941,-0.2384 -0.226569,-0.45343 0.01484,-0.2075 0.250223,-0.39544 0.46683,-0.37271 0.04608,0.005 0.08264,-0.0119 0.135634,-0.0623 0.0399,-0.0379 0.10244,-0.0839 0.13898,-0.10227 0.257835,-0.12965 0.605585,-0.009 0.726285,0.25109 0.03699,0.0799 0.05581,0.0998 0.07984,0.0846 0.05651,-0.0358 0.220506,-0.0225 0.304418,0.0247 0.204572,0.11497 0.253416,0.39105 0.0981,0.55447 -0.122164,0.12853 -0.118015,0.12795 -0.904665,0.12686 -0.708136,-9.7e-4 -0.725177,-0.002 -0.818847,-0.0511 z m 1.607686,-0.16674 c 0.114428,-0.11443 0.07015,-0.28818 -0.09038,-0.35468 -0.06024,-0.0249 -0.08066,-0.0223 -0.176313,0.0224 -0.128812,0.0603 -0.162288,0.0443 -0.199988,-0.0957 -0.04864,-0.18064 -0.200773,-0.30108 -0.380552,-0.30127 -0.13665,-1.4e-4 -0.240007,0.0494 -0.323803,0.1552 -0.0651,0.0822 -0.06887,0.0837 -0.183134,0.0719 -0.14113,-0.0146 -0.238598,0.0281 -0.302062,0.13216 -0.07774,0.1275 -0.04394,0.29039 0.0806,0.38835 0.05667,0.0446 0.08168,0.046 0.784862,0.046 h 0.726327 z"
         id="path8200" />
    </g>
  </g>
</svg>
