<?xml version="1.0" encoding="UTF-8" standalone="no"?>
<!-- Created with Inkscape (http://www.inkscape.org/) -->

<svg
   width="2.0407095mm"
   height="2.0712326mm"
   viewBox="0 0 2.0407095 2.0712326"
   version="1.1"
   id="svg543"
   inkscape:version="1.1.1 (3bf5ae0d25, 2021-09-20)"
   sodipodi:docname="800d.svg"
   xmlns:inkscape="http://www.inkscape.org/namespaces/inkscape"
   xmlns:sodipodi="http://sodipodi.sourceforge.net/DTD/sodipodi-0.dtd"
   xmlns="http://www.w3.org/2000/svg"
   xmlns:svg="http://www.w3.org/2000/svg">
  <sodipodi:namedview
     id="namedview545"
     pagecolor="#ffffff"
     bordercolor="#666666"
     borderopacity="1.0"
     inkscape:pageshadow="2"
     inkscape:pageopacity="0.0"
     inkscape:pagecheckerboard="0"
     inkscape:document-units="mm"
     showgrid="false"
     inkscape:zoom="49.887766"
     inkscape:cx="2.1347919"
     inkscape:cy="4.5401912"
     inkscape:window-width="1868"
     inkscape:window-height="1016"
     inkscape:window-x="52"
     inkscape:window-y="27"
     inkscape:window-maximized="1"
     inkscape:current-layer="g616" />
  <defs
     id="defs540" />
  <g
     inkscape:label="Layer 1"
     inkscape:groupmode="layer"
     id="layer1"
     transform="translate(-93.336535,-90.279431)">
    <g
       id="g616"
       transform="translate(0.00186382,0.00943144)">
      <path
         style="fill:#ffff00;stroke-width:0.0220486;fill-opacity:1"
         d="m 94.162707,91.694321 c -0.21787,-0.103773 -0.306946,-0.370483 -0.196617,-0.588709 0.06404,-0.126665 0.250637,-0.24005 0.395054,-0.24005 0.310103,0 0.529445,0.358712 0.387997,0.63453 -0.115681,0.225573 -0.354536,0.304683 -0.586434,0.194229 z"
         id="path620" />
      <path
         style="fill:#ff7f00;stroke-width:0.0220486;fill-opacity:1"
         d="m 94.310433,92.316115 c -0.05657,-0.05657 -0.02257,-0.282222 0.04252,-0.282222 0.04074,0 0.08536,0.0765 0.08536,0.14634 0,0.134096 -0.06287,0.200896 -0.127882,0.135882 z m -0.687825,-0.293136 c -0.05568,-0.06709 0.120343,-0.243111 0.187432,-0.187432 0.04849,0.04024 0.04042,0.08893 -0.02629,0.158554 -0.06592,0.0688 -0.119974,0.07849 -0.161147,0.02888 z m 1.316771,-0.028 c -0.06773,-0.07069 -0.07837,-0.147797 -0.02331,-0.168924 0.05022,-0.01927 0.187625,0.114566 0.179051,0.174405 -0.0098,0.06846 -0.08752,0.06573 -0.15574,-0.0055 z m -0.721551,-0.112688 c -0.287222,-0.09452 -0.440003,-0.294529 -0.440003,-0.576006 0,-0.401966 0.36892,-0.670953 0.762139,-0.555691 0.113975,0.03341 0.282818,0.180349 0.343174,0.298656 0.139458,0.27336 0.02824,0.623579 -0.24531,0.772464 -0.121526,0.06614 -0.317291,0.09438 -0.42,0.06058 z m 0.303576,-0.169159 c 0.166484,-0.06956 0.270015,-0.223571 0.269204,-0.400457 -0.0018,-0.384785 -0.431584,-0.583966 -0.717824,-0.332644 -0.04273,0.03752 -0.09074,0.09403 -0.106694,0.125577 -0.110329,0.218226 -0.02125,0.484936 0.196617,0.588709 0.127888,0.06091 0.243434,0.06697 0.358697,0.01882 z M 93.344283,91.34047 c -0.02971,-0.07741 0.0074,-0.102839 0.140162,-0.09592 0.119052,0.0062 0.127047,0.01009 0.127047,0.06174 0,0.05165 -0.008,0.05554 -0.127047,0.06174 -0.09868,0.0051 -0.129974,-0.001 -0.140162,-0.02756 z m 1.763889,0 c -0.02971,-0.07741 0.0074,-0.102839 0.140162,-0.09592 0.119052,0.0062 0.127047,0.01009 0.127047,0.06174 0,0.05165 -0.008,0.05554 -0.127047,0.06174 -0.09868,0.0051 -0.129974,-0.001 -0.140162,-0.02756 z m -1.43951,-0.616356 c -0.07627,-0.07869 -0.08025,-0.133727 -0.01156,-0.160085 0.02331,-0.0089 0.06335,0.01411 0.116044,0.0668 0.06617,0.06617 0.07616,0.08728 0.05626,0.118886 -0.03927,0.06235 -0.0821,0.05553 -0.160741,-0.0256 z m 1.238186,0.06045 c -0.08879,-0.03583 0.05372,-0.247094 0.146758,-0.217565 0.06923,0.02197 0.05865,0.107503 -0.02167,0.175086 -0.06973,0.05868 -0.078,0.06148 -0.125087,0.04248 z M 94.310433,90.552222 C 94.253863,90.495652 94.287863,90.27 94.352953,90.27 c 0.04074,0 0.08536,0.0765 0.08536,0.14634 0,0.134096 -0.06287,0.200896 -0.127882,0.135882 z"
         id="path618" />
    </g>
  </g>
</svg>
