<?xml version="1.0" encoding="UTF-8" standalone="no"?>
<!-- Created with Inkscape (http://www.inkscape.org/) -->

<svg
   width="2.0510099mm"
   height="1.85208mm"
   viewBox="0 0 2.0510099 1.85208"
   version="1.1"
   id="svg2970"
   inkscape:version="1.1.1 (3bf5ae0d25, 2021-09-20)"
   sodipodi:docname="802d.svg"
   inkscape:export-filename="/home/ondiiik/Development/micropython/meteo/meteo_py/graphics/bitmap/png/acep/802d.png"
   inkscape:export-xdpi="1489.48"
   inkscape:export-ydpi="1489.48"
   xmlns:inkscape="http://www.inkscape.org/namespaces/inkscape"
   xmlns:sodipodi="http://sodipodi.sourceforge.net/DTD/sodipodi-0.dtd"
   xmlns="http://www.w3.org/2000/svg"
   xmlns:svg="http://www.w3.org/2000/svg">
  <sodipodi:namedview
     id="namedview2972"
     pagecolor="#ffffff"
     bordercolor="#666666"
     borderopacity="1.0"
     inkscape:pageshadow="2"
     inkscape:pageopacity="0.0"
     inkscape:pagecheckerboard="0"
     inkscape:document-units="mm"
     showgrid="false"
     inkscape:zoom="32"
     inkscape:cx="0.3125"
     inkscape:cy="1.796875"
     inkscape:window-width="1868"
     inkscape:window-height="1016"
     inkscape:window-x="52"
     inkscape:window-y="27"
     inkscape:window-maximized="1"
     inkscape:current-layer="g3024" />
  <defs
     id="defs2967" />
  <g
     inkscape:label="Layer 1"
     inkscape:groupmode="layer"
     id="layer1"
     transform="translate(-129.98748,-116.52061)">
    <g
       id="g3024"
       transform="translate(-0.00665991,0.00434047)">
      <path
         style="fill:#ffff00;fill-opacity:1;stroke-width:0.0220486"
         d="m 131.22338,117.32602 c -0.11365,-0.0588 -0.12678,-0.0728 -0.12678,-0.13514 0,-0.0903 0.0534,-0.16444 0.1462,-0.20322 0.13838,-0.0578 0.29477,0.0524 0.29477,0.20766 0,0.0785 -0.10101,0.20598 -0.15815,0.19959 -0.0161,-0.002 -0.0863,-0.0328 -0.15604,-0.0689 z"
         id="path3030" />
      <path
         style="fill:#ff7f00;fill-opacity:1;stroke-width:0.0220486"
         d="m 131.37093,117.43757 c -0.0478,-0.0508 -0.07,-0.0797 -0.0494,-0.0641 0.0797,0.0602 0.21603,-0.0553 0.21603,-0.18283 0,-0.09 -0.0534,-0.16425 -0.14619,-0.203 -0.14563,-0.0609 -0.3091,0.0646 -0.29061,0.22295 0.008,0.0714 0.004,0.0773 -0.05,0.0773 -0.0711,0 -0.103,-0.036 -0.0977,-0.11024 0.0144,-0.20023 0.14001,-0.33235 0.33109,-0.3482 0.17633,-0.0146 0.31699,0.0746 0.37445,0.2374 0.0574,0.16278 -5e-5,0.3325 -0.1444,0.42641 -0.0556,0.0361 -0.0577,0.0353 -0.14332,-0.0557 z m 0.4643,0.0448 c -0.0632,-0.0363 -0.0771,-0.0652 -0.0528,-0.11057 0.0277,-0.0517 0.0899,-0.0506 0.1551,0.003 0.0424,0.0348 0.0475,0.0501 0.0276,0.0827 -0.0303,0.0497 -0.0727,0.0578 -0.12993,0.0249 z M 131.1848,117.321 c -0.0303,-0.0173 -0.0452,-0.0315 -0.0331,-0.0315 0.0121,0 0.0469,0.0142 0.0772,0.0315 0.0303,0.0173 0.0452,0.0315 0.0331,0.0315 -0.0121,0 -0.0469,-0.0142 -0.0772,-0.0315 z m -0.48017,-0.30993 c -0.0566,-0.0397 -0.0626,-0.0813 -0.017,-0.11914 0.0362,-0.03 0.10582,-0.0142 0.15523,0.0352 0.0248,0.0249 0.0274,0.0438 0.0104,0.0757 -0.0275,0.0515 -0.0826,0.0545 -0.14862,0.008 z m 1.0763,-0.008 c -0.0171,-0.0319 -0.0145,-0.0509 0.0104,-0.0757 0.0494,-0.0494 0.11905,-0.0652 0.15522,-0.0352 0.0456,0.0378 0.0396,0.0795 -0.017,0.11914 -0.0661,0.0463 -0.12107,0.0432 -0.14861,-0.008 z m -0.73788,-0.30076 c -0.0475,-0.0475 -0.0436,-0.13538 0.007,-0.16255 0.0449,-0.0241 0.0624,-0.0111 0.11116,0.0829 0.0471,0.0908 -0.0451,0.15291 -0.1183,0.0797 z m 0.43574,0.007 c -0.0239,-0.038 -0.01,-0.10833 0.0305,-0.15364 0.0443,-0.0497 0.11645,-0.0142 0.11645,0.0573 0,0.087 -0.1083,0.15802 -0.14698,0.0964 z"
         id="path3028" />
      <path
         style="fill:#0000ff;fill-opacity:1;stroke-width:0.0220486;stroke:none;stroke-opacity:1"
         d="m 130.30112,118.33818 c -0.15044,-0.0538 -0.23665,-0.14072 -0.28427,-0.28666 -0.0881,-0.27005 0.12997,-0.56514 0.41764,-0.56514 0.0847,0 0.11345,-0.0113 0.16448,-0.0645 0.10172,-0.10617 0.25793,-0.16151 0.40426,-0.14323 0.17268,0.0216 0.29243,0.0804 0.39892,0.19591 0.0502,0.0545 0.0915,0.10674 0.0917,0.11611 0.001,0.0538 0.0378,0.0708 0.10897,0.0504 0.0875,-0.0251 0.23052,0.005 0.30238,0.064 0.2065,0.1691 0.1768,0.48879 -0.0569,0.61206 -0.0958,0.0505 -0.10688,0.0512 -0.78273,0.0503 -0.49886,-7.1e-4 -0.70704,-0.009 -0.76445,-0.0292 z m 1.52775,-0.18809 c 0.0586,-0.0524 0.0715,-0.0802 0.0715,-0.15434 0,-0.17689 -0.16693,-0.25973 -0.35785,-0.17758 -0.0927,0.0399 -0.13564,0.0142 -0.16989,-0.10181 -0.0378,-0.12791 -0.0875,-0.19299 -0.19267,-0.2521 -0.12795,-0.0719 -0.26643,-0.0701 -0.3947,0.005 -0.054,0.0316 -0.11161,0.0826 -0.12803,0.11331 -0.0387,0.0724 -0.0691,0.0824 -0.16279,0.0536 -0.0648,-0.0199 -0.0923,-0.0162 -0.17334,0.023 -0.11583,0.0561 -0.17259,0.1438 -0.17259,0.26675 0,0.10609 0.048,0.18934 0.14237,0.24689 0.0616,0.0376 0.12414,0.0409 0.76679,0.041 l 0.69969,8e-5 z"
         id="path3026" />
    </g>
  </g>
</svg>
