<?xml version="1.0" encoding="UTF-8" standalone="no"?>
<!-- Created with Inkscape (http://www.inkscape.org/) -->

<svg
   width="2.0725694mm"
   height="1.984375mm"
   viewBox="0 0 2.0725694 1.984375"
   version="1.1"
   id="svg6997"
   inkscape:version="1.1.1 (3bf5ae0d25, 2021-09-20)"
   sodipodi:docname="511d.svg"
   xmlns:inkscape="http://www.inkscape.org/namespaces/inkscape"
   xmlns:sodipodi="http://sodipodi.sourceforge.net/DTD/sodipodi-0.dtd"
   xmlns="http://www.w3.org/2000/svg"
   xmlns:svg="http://www.w3.org/2000/svg">
  <sodipodi:namedview
     id="namedview6999"
     pagecolor="#ffffff"
     bordercolor="#666666"
     borderopacity="1.0"
     inkscape:pageshadow="2"
     inkscape:pageopacity="0.0"
     inkscape:pagecheckerboard="0"
     inkscape:document-units="mm"
     showgrid="false"
     inkscape:zoom="49.887766"
     inkscape:cx="0.80179978"
     inkscape:cy="5.362036"
     inkscape:window-width="1868"
     inkscape:window-height="1016"
     inkscape:window-x="52"
     inkscape:window-y="27"
     inkscape:window-maximized="1"
     inkscape:current-layer="g7111" />
  <defs
     id="defs6994" />
  <g
     inkscape:label="Layer 1"
     inkscape:groupmode="layer"
     id="layer1"
     transform="translate(-112.67229,-121.54153)">
    <g
       id="g7111">
      <path
         style="fill:#0000ff;stroke-width:0.0220486;fill-opacity:1"
         d="m 113.65806,123.51214 c -0.0292,-0.0292 -0.0158,-0.11375 0.0202,-0.12757 0.0489,-0.0187 0.1,0.0281 0.092,0.0843 -0.007,0.0456 -0.0811,0.0744 -0.11221,0.0433 z m -0.29906,-0.16979 c -0.0412,-0.0496 -0.006,-0.1065 0.0603,-0.0988 0.0452,0.005 0.0578,0.0187 0.0578,0.0618 0,0.0642 -0.0758,0.0879 -0.11806,0.0369 z m 0.57803,-0.004 c -0.0208,-0.0543 0.009,-0.0992 0.0662,-0.0992 0.0614,0 0.0928,0.0574 0.0559,0.10202 -0.0334,0.0403 -0.10611,0.0386 -0.122,-0.003 z m -0.26897,-0.11858 c -0.0162,-0.0103 -0.0261,-0.0424 -0.022,-0.0713 0.006,-0.0394 0.0213,-0.0526 0.0623,-0.0526 0.0623,0 0.0859,0.0602 0.0435,0.1113 -0.0305,0.0367 -0.0428,0.0386 -0.0837,0.0126 z m -0.31109,-0.16664 c -0.0314,-0.0378 0.005,-0.12268 0.052,-0.12268 0.0467,0 0.0841,0.0597 0.0684,0.10919 -0.0166,0.0522 -0.0822,0.0596 -0.12043,0.0135 z m 0.58278,-0.0135 c -0.0157,-0.0495 0.0217,-0.10919 0.0684,-0.10919 0.0446,0 0.0754,0.0714 0.0502,0.11633 -0.0292,0.0522 -0.10119,0.0478 -0.11864,-0.007 z m -0.28875,-0.14071 c -0.022,-0.0572 0.009,-0.1045 0.063,-0.0968 0.0707,0.01 0.0707,0.11432 0,0.12436 -0.0298,0.004 -0.055,-0.007 -0.063,-0.0276 z m -0.69208,-0.29026 c -0.094,-0.0407 -0.19051,-0.12963 -0.23704,-0.21841 -0.0447,-0.0854 -0.0447,-0.28947 0,-0.37482 0.0776,-0.1481 0.24812,-0.25356 0.40995,-0.25356 0.0675,0 0.10415,-0.0165 0.16933,-0.0762 0.16015,-0.14669 0.39885,-0.18377 0.59499,-0.0924 0.11836,0.0551 0.24499,0.18205 0.27903,0.27969 0.0205,0.0588 0.024,0.0598 0.1629,0.0487 0.12687,-0.0102 0.15128,-0.005 0.22966,0.0466 0.24532,0.16235 0.21165,0.52935 -0.0592,0.64523 -0.10838,0.0464 -1.44103,0.0422 -1.54963,-0.005 z"
         id="path7113" />
    </g>
  </g>
</svg>
