<?xml version="1.0" encoding="UTF-8" standalone="no"?>
<!-- Created with Inkscape (http://www.inkscape.org/) -->

<svg
   width="2.0407095mm"
   height="2.0712326mm"
   viewBox="0 0 2.0407095 2.0712326"
   version="1.1"
   id="svg543"
   inkscape:version="1.1.1 (3bf5ae0d25, 2021-09-20)"
   sodipodi:docname="800d.svg"
   inkscape:export-filename="/home/ondiiik/Development/micropython/meteo/meteo_py/graphics/bitmap/png/acep/800d.png"
   inkscape:export-xdpi="1486.45"
   inkscape:export-ydpi="1486.45"
   xmlns:inkscape="http://www.inkscape.org/namespaces/inkscape"
   xmlns:sodipodi="http://sodipodi.sourceforge.net/DTD/sodipodi-0.dtd"
   xmlns="http://www.w3.org/2000/svg"
   xmlns:svg="http://www.w3.org/2000/svg">
  <sodipodi:namedview
     id="namedview545"
     pagecolor="#ffffff"
     bordercolor="#666666"
     borderopacity="1.0"
     inkscape:pageshadow="2"
     inkscape:pageopacity="0.0"
     inkscape:pagecheckerboard="0"
     inkscape:document-units="mm"
     showgrid="false"
     inkscape:zoom="64"
     inkscape:cx="-0.421875"
     inkscape:cy="2.7109375"
     inkscape:window-width="1868"
     inkscape:window-height="1016"
     inkscape:window-x="52"
     inkscape:window-y="27"
     inkscape:window-maximized="1"
     inkscape:current-layer="g616" />
  <defs
     id="defs540" />
  <g
     inkscape:label="Layer 1"
     inkscape:groupmode="layer"
     id="layer1"
     transform="translate(-93.336535,-90.279431)">
    <g
       id="g616"
       transform="translate(0.00186382,0.00943144)">
      <path
         style="fill:#ffff00;fill-opacity:1;stroke-width:0.0220486"
         d="m 93.632809,91.208399 c -0.0862,0.01692 -0.272267,-0.213237 -0.248022,-0.268303 0.02933,-0.07612 0.352776,-0.135222 0.376918,-0.05208 0.01684,0.0475 -0.03325,0.07736 -0.06661,0.159347 -0.03177,0.07964 -0.01311,0.139383 -0.06233,0.161021 z m 0.596962,-0.623743 c -0.01677,0.06265 -0.08473,0.04801 -0.158143,0.0793 -0.09408,0.03522 -0.09861,0.07378 -0.145551,0.06178 -0.0869,-0.02821 -0.0262,-0.333241 0.02566,-0.352288 0.06669,-0.04074 0.294889,0.169968 0.27804,0.211212 z m -0.454668,1.182443 c -0.03643,0.0881 -0.317485,0.04564 -0.345107,-0.01648 -0.03618,-0.06136 0.112363,-0.322509 0.202483,-0.285406 0.04601,0.01731 0.02626,0.06645 0.06583,0.15075 0.03411,0.07267 0.0947,0.109897 0.0768,0.151138 z m 0.08805,-0.788479 c 0.193717,-0.232172 0.435953,-0.300491 0.697619,-0.196758 0.373674,0.148137 0.48777,0.590221 0.235707,0.913286 -0.07306,0.09364 -0.271882,0.196448 -0.404105,0.208956 -0.305514,0.0289 -0.590096,-0.203556 -0.62769,-0.512721 -0.0167,-0.137347 0.02919,-0.32974 0.09847,-0.412764 z m 0.825617,-0.612382 c 0.06231,0.02447 0.11684,0.338579 0.06341,0.369915 -0.05524,0.0209 -0.08986,-0.03631 -0.162946,-0.06148 -0.08967,-0.03093 -0.13268,-0.0097 -0.151408,-0.06228 -0.01822,-0.04187 0.177112,-0.271611 0.250932,-0.246126 z m -0.473213,1.668134 c 0.01113,0.05337 -0.175201,0.257861 -0.243534,0.232603 -0.05846,-0.0263 -0.140441,-0.343332 -0.05254,-0.364723 0.05886,-0.01506 0.0498,0.02749 0.141545,0.06461 0.06615,0.02677 0.130211,0.019 0.154531,0.0675 z m 1.079721,-1.091191 c 0.0235,0.045 -0.181929,0.273476 -0.26617,0.220212 -0.02365,-0.01497 -0.01021,-0.05762 -0.03454,-0.121783 -0.03135,-0.0742 -0.09778,-0.111492 -0.08658,-0.139368 0.03366,-0.08382 0.362936,-0.01726 0.387301,0.04094 z m -0.563579,0.954577 c 0.09331,0.01414 0.09809,0.316762 0.04617,0.342542 -0.03116,0.03914 -0.330253,-0.152287 -0.289408,-0.226437 0.02837,-0.03547 0.03283,-0.0047 0.113874,-0.04558 0.06926,-0.03497 0.08551,-0.0792 0.129368,-0.07053 z m 0.278024,-0.348871 c 0.02925,-0.07703 0.0053,-0.146287 0.03812,-0.154053 0.08547,-0.02023 0.270295,0.207173 0.264329,0.303577 -0.05124,0.04724 -0.319175,0.0731 -0.368752,-0.0057 -0.01924,-0.03057 0.03118,-0.0493 0.06627,-0.14384 z"
         id="path618-3"
         sodipodi:nodetypes="ccccccccccccccccccscccccscccsccscsccscsccscsccscsccscsc" />
      <path
         style="fill:#ff7f00;fill-opacity:1;stroke-width:0.0220486"
         d="m 94.516324,92.011749 c 0.0475,0.0739 -0.09789,0.331688 -0.158015,0.329442 -0.08157,7.91e-4 -0.255713,-0.278112 -0.187323,-0.331194 0.03795,-0.03316 0.08417,0.0024 0.17268,0.0032 0.08574,1.89e-4 0.134404,-0.03918 0.172658,-0.0014 z m -0.79984,-0.325077 c 0.06442,-0.0075 0.07586,0.06107 0.131995,0.117789 0.06741,0.07448 0.104927,0.06448 0.111068,0.11254 0.0058,0.09118 -0.300131,0.147164 -0.336947,0.10598 -0.06245,-0.04698 0.04933,-0.336772 0.09388,-0.336309 z m 1.266777,-0.0131 c 0.09532,0.0014 0.159432,0.278319 0.111862,0.32689 -0.04371,0.05625 -0.341219,0.0144 -0.339939,-0.08305 -8.62e-4,-0.04915 0.05209,-0.0489 0.11588,-0.116751 0.05498,-0.05849 0.06726,-0.12854 0.112197,-0.127092 z m -0.765433,0.208723 c -0.287222,-0.09452 -0.440003,-0.294529 -0.440003,-0.576006 0,-0.401966 0.36892,-0.670953 0.762139,-0.555691 0.113975,0.03341 0.282818,0.180349 0.343174,0.298656 0.139458,0.27336 0.02824,0.623579 -0.24531,0.772464 -0.121526,0.06614 -0.317291,0.09438 -0.42,0.06058 z m 0.303576,-0.169159 c 0.166484,-0.06956 0.270015,-0.223571 0.269204,-0.400457 -0.0018,-0.384785 -0.431584,-0.583966 -0.717824,-0.332644 -0.04273,0.03752 -0.09074,0.09403 -0.106694,0.125577 -0.110329,0.218226 -0.02125,0.484936 0.196617,0.588709 0.127888,0.06091 0.243434,0.06697 0.358697,0.01882 z M 93.344283,91.34047 c -2.19e-4,-0.06694 0.271689,-0.233393 0.32051,-0.195272 0.03979,0.04365 -6.33e-4,0.09692 0.0029,0.174134 0.0043,0.09476 0.03984,0.126931 -0.0021,0.163704 -0.03221,0.03237 -0.317765,-0.06455 -0.321279,-0.142566 z M 95.0694,91.165618 c 0.04551,-0.03002 0.304278,0.06784 0.305981,0.140672 -0.0029,0.06404 -0.26741,0.257084 -0.31969,0.183252 -0.03569,-0.04917 0.0072,-0.05642 0.0079,-0.155393 5.05e-4,-0.07136 -0.03032,-0.12805 0.0058,-0.168531 z m -1.412298,-0.601589 c 0.03317,-0.03843 0.321274,0.06834 0.302804,0.166281 -0.0052,0.0275 -0.0498,0.03073 -0.100482,0.07699 -0.05742,0.05649 -0.06761,0.131987 -0.09765,0.131852 -0.09033,-4.03e-4 -0.149798,-0.33103 -0.104675,-0.375128 z m 1.095086,0.172122 c -0.02124,-0.09195 0.258318,-0.207921 0.301418,-0.169155 0.04787,0.01454 -0.01986,0.363131 -0.103844,0.352487 -0.04343,-0.0133 -0.01644,-0.0288 -0.08434,-0.08906 -0.05803,-0.0515 -0.105139,-0.0503 -0.113242,-0.09427 z m -0.426777,-0.129886 c -0.08239,0.0012 -0.137953,0.04896 -0.157257,0.02134 -0.05031,-0.072 0.09298,-0.32762 0.184797,-0.357602 0.0628,0.03022 0.185581,0.26977 0.1306,0.344897 -0.02133,0.02915 -0.05732,-0.01082 -0.15814,-0.0086 z"
         id="path618"
         sodipodi:nodetypes="ccccccccccccscccccccccccscccccsccccsccccsccscsccscsccscsccscs" />
    </g>
  </g>
</svg>
