<?xml version="1.0" encoding="UTF-8" standalone="no"?>
<!-- Created with Inkscape (http://www.inkscape.org/) -->

<svg
   width="2.0407095mm"
   height="2.0712326mm"
   viewBox="0 0 2.0407095 2.0712326"
   version="1.1"
   id="svg543"
   inkscape:version="1.1.1 (3bf5ae0d25, 2021-09-20)"
   sodipodi:docname="801d.svg"
   inkscape:export-filename="/home/ondiiik/Development/micropython/meteo/meteo_py/graphics/bitmap/png/acep/801d.png"
   inkscape:export-xdpi="1486.45"
   inkscape:export-ydpi="1486.45"
   xmlns:inkscape="http://www.inkscape.org/namespaces/inkscape"
   xmlns:sodipodi="http://sodipodi.sourceforge.net/DTD/sodipodi-0.dtd"
   xmlns="http://www.w3.org/2000/svg"
   xmlns:svg="http://www.w3.org/2000/svg">
  <sodipodi:namedview
     id="namedview545"
     pagecolor="#ffffff"
     bordercolor="#666666"
     borderopacity="1.0"
     inkscape:pageshadow="2"
     inkscape:pageopacity="0.0"
     inkscape:pagecheckerboard="0"
     inkscape:document-units="mm"
     showgrid="false"
     inkscape:zoom="45.254834"
     inkscape:cx="-3.7123106"
     inkscape:cy="2.9720582"
     inkscape:window-width="1868"
     inkscape:window-height="1016"
     inkscape:window-x="52"
     inkscape:window-y="27"
     inkscape:window-maximized="1"
     inkscape:current-layer="g616" />
  <defs
     id="defs540" />
  <g
     inkscape:label="Layer 1"
     inkscape:groupmode="layer"
     id="layer1"
     transform="translate(-93.336535,-90.279431)">
    <g
       id="g616"
       transform="translate(0.00186382,0.00943144)">
      <path
         style="fill:#ffff00;fill-opacity:1;stroke-width:0.0183916"
         d="m 93.766807,91.222574 c -0.0719,0.01411 -0.227108,-0.177869 -0.206884,-0.223802 0.02447,-0.06349 0.294263,-0.112793 0.314401,-0.04344 0.01405,0.03962 -0.02774,0.06453 -0.05556,0.132918 -0.0265,0.06643 -0.01094,0.116264 -0.05199,0.134313 z m 0.497949,-0.520287 c -0.01399,0.05226 -0.07068,0.04005 -0.131913,0.06615 -0.07848,0.02938 -0.08225,0.06154 -0.12141,0.05153 -0.07249,-0.02353 -0.02185,-0.277969 0.0214,-0.293857 0.05563,-0.03398 0.245978,0.141777 0.231924,0.17618 z M 93.8855,91.688606 c -0.03039,0.07349 -0.264826,0.03807 -0.287867,-0.01375 -0.03018,-0.05118 0.09373,-0.269017 0.168899,-0.238068 0.03838,0.01444 0.0219,0.05543 0.05491,0.125746 0.02845,0.06062 0.07899,0.09167 0.06406,0.12607 z m 0.07345,-0.657699 c 0.161586,-0.193664 0.363644,-0.250651 0.58191,-0.164124 0.311695,0.123567 0.406867,0.492326 0.196612,0.761806 -0.06094,0.07811 -0.226787,0.163865 -0.337079,0.174298 -0.254841,0.02411 -0.492221,-0.169793 -0.52358,-0.427679 -0.01393,-0.114567 0.02435,-0.275049 0.08214,-0.344302 z m 0.688678,-0.510811 c 0.05197,0.02041 0.09746,0.282421 0.05289,0.30856 -0.04608,0.01743 -0.07496,-0.03029 -0.135919,-0.05128 -0.0748,-0.0258 -0.110673,-0.0081 -0.126295,-0.05195 -0.0152,-0.03492 0.147736,-0.226561 0.209312,-0.205303 z m -0.394725,1.391453 c 0.0093,0.04452 -0.146142,0.215091 -0.203141,0.194023 -0.04876,-0.02194 -0.117147,-0.286386 -0.04382,-0.304229 0.0491,-0.01256 0.04154,0.02293 0.118068,0.05389 0.05518,0.02233 0.108614,0.01585 0.1289,0.0563 z m 0.900636,-0.910203 c 0.0196,0.03754 -0.151754,0.228116 -0.222023,0.183687 -0.01973,-0.01249 -0.0085,-0.04806 -0.02881,-0.101584 -0.02615,-0.06189 -0.08156,-0.093 -0.07222,-0.116252 0.02808,-0.06992 0.302738,-0.0144 0.323062,0.03415 z m -0.470103,0.796248 c 0.07783,0.01179 0.08182,0.264223 0.03851,0.285727 -0.02599,0.03265 -0.275477,-0.127028 -0.241406,-0.188879 0.02366,-0.02959 0.02738,-0.0039 0.09499,-0.03802 0.05777,-0.02917 0.07133,-0.06606 0.107911,-0.05883 z m 0.231911,-0.291006 c 0.0244,-0.06425 0.0044,-0.122024 0.0318,-0.128502 0.07129,-0.01687 0.225463,0.172811 0.220487,0.253225 -0.04274,0.03941 -0.266236,0.06098 -0.30759,-0.0048 -0.01605,-0.0255 0.02601,-0.04112 0.05528,-0.119983 z"
         id="path618-3"
         sodipodi:nodetypes="ccccccccccccccccccscccccscccsccscsccscsccscsccscsccscsc"
         inkscape:export-filename="/home/ondiiik/Development/micropython/meteo/meteo_py/graphics/bitmap/png/acep/801d.png"
         inkscape:export-xdpi="1486.45"
         inkscape:export-ydpi="1486.45" />
      <path
         style="fill:#ff7f00;fill-opacity:1;stroke-width:0.0220486"
         d="m 94.516324,92.011749 c 0.0475,0.0739 -0.09789,0.331688 -0.158015,0.329442 -0.08157,7.91e-4 -0.255713,-0.278112 -0.187323,-0.331194 0.03795,-0.03316 0.08417,0.0024 0.17268,0.0032 0.08574,1.89e-4 0.134404,-0.03918 0.172658,-0.0014 z m -0.79984,-0.325077 c 0.06442,-0.0075 0.07586,0.06107 0.131995,0.117789 0.06741,0.07448 0.104927,0.06448 0.111068,0.11254 0.0058,0.09118 -0.300131,0.147164 -0.336947,0.10598 -0.06245,-0.04698 0.04933,-0.336772 0.09388,-0.336309 z m 1.266777,-0.0131 c 0.09532,0.0014 0.159432,0.278319 0.111862,0.32689 -0.04371,0.05625 -0.341219,0.0144 -0.339939,-0.08305 -8.62e-4,-0.04915 0.05209,-0.0489 0.11588,-0.116751 0.05498,-0.05849 0.06726,-0.12854 0.112197,-0.127092 z m -0.765433,0.208723 c -0.287222,-0.09452 -0.440003,-0.294529 -0.440003,-0.576006 0,-0.401966 0.36892,-0.670953 0.762139,-0.555691 0.113975,0.03341 0.282818,0.180349 0.343174,0.298656 0.139458,0.27336 0.02824,0.623579 -0.24531,0.772464 -0.121526,0.06614 -0.317291,0.09438 -0.42,0.06058 z m 0.303576,-0.169159 c 0.166484,-0.06956 0.270015,-0.223571 0.269204,-0.400457 -0.0018,-0.384785 -0.431584,-0.583966 -0.717824,-0.332644 -0.04273,0.03752 -0.09074,0.09403 -0.106694,0.125577 -0.110329,0.218226 -0.02125,0.484936 0.196617,0.588709 0.127888,0.06091 0.243434,0.06697 0.358697,0.01882 z M 93.344283,91.34047 c -2.19e-4,-0.06694 0.271689,-0.233393 0.32051,-0.195272 0.03979,0.04365 -6.33e-4,0.09692 0.0029,0.174134 0.0043,0.09476 0.03984,0.126931 -0.0021,0.163704 -0.03221,0.03237 -0.317765,-0.06455 -0.321279,-0.142566 z M 95.0694,91.165618 c 0.04551,-0.03002 0.304278,0.06784 0.305981,0.140672 -0.0029,0.06404 -0.26741,0.257084 -0.31969,0.183252 -0.03569,-0.04917 0.0072,-0.05642 0.0079,-0.155393 5.05e-4,-0.07136 -0.03032,-0.12805 0.0058,-0.168531 z m -1.412298,-0.601589 c 0.03317,-0.03843 0.321274,0.06834 0.302804,0.166281 -0.0052,0.0275 -0.0498,0.03073 -0.100482,0.07699 -0.05742,0.05649 -0.06761,0.131987 -0.09765,0.131852 -0.09033,-4.03e-4 -0.149798,-0.33103 -0.104675,-0.375128 z m 1.095086,0.172122 c -0.02124,-0.09195 0.258318,-0.207921 0.301418,-0.169155 0.04787,0.01454 -0.01986,0.363131 -0.103844,0.352487 -0.04343,-0.0133 -0.01644,-0.0288 -0.08434,-0.08906 -0.05803,-0.0515 -0.105139,-0.0503 -0.113242,-0.09427 z m -0.426777,-0.129886 c -0.08239,0.0012 -0.137953,0.04896 -0.157257,0.02134 -0.05031,-0.072 0.09298,-0.32762 0.184797,-0.357602 0.0628,0.03022 0.185581,0.26977 0.1306,0.344897 -0.02133,0.02915 -0.05732,-0.01082 -0.15814,-0.0086 z"
         id="path618"
         sodipodi:nodetypes="ccccccccccccscccccccccccscccccsccccsccccsccscsccscsccscsccscs" />
    </g>
  </g>
</svg>
