<?xml version="1.0" encoding="UTF-8" standalone="no"?>
<!-- Created with Inkscape (http://www.inkscape.org/) -->

<svg
   width="2.0505209mm"
   height="1.8520833mm"
   viewBox="0 0 2.0505209 1.8520833"
   version="1.1"
   id="svg1463"
   inkscape:version="1.1.1 (3bf5ae0d25, 2021-09-20)"
   sodipodi:docname="802n.svg"
   inkscape:export-filename="/home/ondiiik/Development/micropython/meteo/meteo_py/graphics/bitmap/png/acep/802n.png"
   inkscape:export-xdpi="1486.45"
   inkscape:export-ydpi="1486.45"
   xmlns:inkscape="http://www.inkscape.org/namespaces/inkscape"
   xmlns:sodipodi="http://sodipodi.sourceforge.net/DTD/sodipodi-0.dtd"
   xmlns="http://www.w3.org/2000/svg"
   xmlns:svg="http://www.w3.org/2000/svg">
  <sodipodi:namedview
     id="namedview1465"
     pagecolor="#ffffff"
     bordercolor="#666666"
     borderopacity="1.0"
     inkscape:pageshadow="2"
     inkscape:pageopacity="0.0"
     inkscape:pagecheckerboard="0"
     inkscape:document-units="mm"
     showgrid="false"
     inkscape:zoom="64"
     inkscape:cx="3.875"
     inkscape:cy="1.8359375"
     inkscape:window-width="1868"
     inkscape:window-height="1016"
     inkscape:window-x="52"
     inkscape:window-y="27"
     inkscape:window-maximized="1"
     inkscape:current-layer="g1577" />
  <defs
     id="defs1460" />
  <g
     inkscape:label="Layer 1"
     inkscape:groupmode="layer"
     id="layer1"
     transform="translate(-119.13245,-145.02824)">
    <g
       id="g1577">
      <path
         style="fill:#ffff7f;fill-opacity:1;stroke-width:0.0220486"
         d="m 120.58901,146.0237 c -0.0166,-0.0401 -0.0753,-0.092 -0.16202,-0.14331 -0.12883,-0.0762 -0.16613,-0.085 -0.36332,-0.0855 -0.0376,-8e-5 -0.0399,-0.002 -0.009,-0.01 0.0348,-0.008 0.0392,-0.0264 0.0309,-0.12726 -0.0114,-0.13782 0.0213,-0.25215 0.0983,-0.34375 0.0723,-0.0859 0.0954,-0.0828 0.0954,0.013 0,0.14222 0.11905,0.34779 0.2688,0.46414 0.0347,0.0269 0.13258,0.083 0.15012,0.086 0.006,0.001 0.0581,0.009 0.11576,0.0187 0.0576,0.009 0.10473,0.022 0.10473,0.0285 0,0.0408 -0.20363,0.16203 -0.27223,0.16203 -0.0171,0 -0.0428,-0.0283 -0.0571,-0.0629 z"
         id="path1583" />
      <path
         style="fill:#7f7fff;fill-opacity:1;stroke-width:0.0220486"
         d="m 120.6538,146.10862 c 0,-0.0121 0.01,-0.0233 0.022,-0.0248 0.0121,-0.002 0.032,-0.005 0.0441,-0.008 0.0121,-0.003 0.0328,-0.007 0.0459,-0.008 0.024,-0.003 0.17455,-0.1484 0.17455,-0.16887 0,-0.006 -0.0273,-0.01 -0.0606,-0.008 -0.0814,0.004 -0.19554,-0.0195 -0.25359,-0.0526 -0.17127,-0.0977 -0.31414,-0.30412 -0.33973,-0.4908 -0.008,-0.0548 -0.0219,-0.10476 -0.0319,-0.11095 -0.0318,-0.0197 -0.1468,0.16342 -0.17414,0.27738 -0.0191,0.0795 -0.0199,0.1283 -0.003,0.17699 0.0255,0.073 0.001,0.0989 -0.0784,0.0831 -0.0607,-0.0121 -0.0543,-0.30394 0.009,-0.42673 0.082,-0.15802 0.32115,-0.34153 0.37498,-0.28771 0.008,0.008 0.0198,0.0963 0.0265,0.19658 0.008,0.1238 0.0256,0.20325 0.0538,0.24747 0.12248,0.19224 0.24612,0.26096 0.47529,0.26421 0.10811,0.002 0.16709,0.0115 0.17303,0.0293 0.0183,0.055 -0.0213,0.14063 -0.10909,0.2359 -0.0871,0.0945 -0.0948,0.0979 -0.21974,0.0979 -0.0716,0 -0.12949,-0.01 -0.12949,-0.0221 z"
         id="path1581" />
      <path
         style="fill:#7f7fff;stroke-width:0.0220486;fill-opacity:1"
         d="m 119.38357,146.82535 c -0.12245,-0.061 -0.18605,-0.134 -0.22816,-0.26183 -0.0888,-0.26961 0.12956,-0.56514 0.41764,-0.56514 0.0824,0 0.11359,-0.0114 0.15638,-0.0573 0.15341,-0.14446 0.30372,-0.14419 0.46571,-0.14108 0.0577,0.006 0.0751,0.007 0.16622,0.0412 0.0463,0.0267 0.20215,0.11649 0.21612,0.1605 0.0543,0.086 0.0925,0.1305 0.21904,0.14087 0.17452,0.0143 0.26673,0.0638 0.33466,0.17976 0.0472,0.0806 0.0554,0.1174 0.0473,0.21413 -0.012,0.14491 -0.0739,0.2367 -0.20117,0.2983 -0.0901,0.0436 -0.13054,0.046 -0.78927,0.046 h -0.69426 z m 1.58358,-0.16326 c 0.0586,-0.0524 0.0715,-0.0802 0.0715,-0.15434 0,-0.17689 -0.16693,-0.25973 -0.35785,-0.17758 -0.0927,0.0399 -0.13564,0.0142 -0.16989,-0.10181 -0.0378,-0.12791 -0.0875,-0.19299 -0.19267,-0.2521 -0.12795,-0.0719 -0.26643,-0.0701 -0.3947,0.005 -0.054,0.0316 -0.11161,0.0826 -0.12803,0.11331 -0.0387,0.0724 -0.0691,0.0824 -0.16279,0.0536 -0.0648,-0.0199 -0.0923,-0.0162 -0.17334,0.023 -0.11583,0.0561 -0.17259,0.1438 -0.17259,0.26675 0,0.10609 0.048,0.18934 0.14237,0.24689 0.0616,0.0376 0.12414,0.0409 0.76679,0.041 l 0.69969,8e-5 z"
         id="path1579"
         sodipodi:nodetypes="ccsccccccccscccscccccccscccc" />
    </g>
  </g>
</svg>
