<?xml version="1.0" encoding="UTF-8" standalone="no"?>
<!-- Created with Inkscape (http://www.inkscape.org/) -->

<svg
   width="2.0505209mm"
   height="1.3890625mm"
   viewBox="0 0 2.0505209 1.3890625"
   version="1.1"
   id="svg4578"
   inkscape:version="1.1.1 (3bf5ae0d25, 2021-09-20)"
   sodipodi:docname="804d.svg"
   xmlns:inkscape="http://www.inkscape.org/namespaces/inkscape"
   xmlns:sodipodi="http://sodipodi.sourceforge.net/DTD/sodipodi-0.dtd"
   xmlns="http://www.w3.org/2000/svg"
   xmlns:svg="http://www.w3.org/2000/svg">
  <sodipodi:namedview
     id="namedview4580"
     pagecolor="#ffffff"
     bordercolor="#666666"
     borderopacity="1.0"
     inkscape:pageshadow="2"
     inkscape:pageopacity="0.0"
     inkscape:pagecheckerboard="0"
     inkscape:document-units="mm"
     showgrid="false"
     inkscape:zoom="90.509668"
     inkscape:cx="3.7012621"
     inkscape:cy="2.3699126"
     inkscape:window-width="1868"
     inkscape:window-height="1016"
     inkscape:window-x="52"
     inkscape:window-y="27"
     inkscape:window-maximized="1"
     inkscape:current-layer="g4692" />
  <defs
     id="defs4575" />
  <g
     inkscape:label="Layer 1"
     inkscape:groupmode="layer"
     id="layer1"
     transform="translate(-42.082169,-151.36948)">
    <g
       id="g4692">
      <path
         style="fill:#7f7fff;stroke-width:0.0220486;fill-opacity:1"
         d="m 42.331417,152.58313 c -0.10149,-0.0619 -0.135871,-0.18596 -0.08262,-0.29817 0.04853,-0.10228 0.14864,-0.1503 0.272156,-0.13055 0.07598,0.0121 0.09054,0.007 0.12361,-0.0434 0.05646,-0.0862 0.168796,-0.14618 0.273643,-0.14618 0.163652,0 0.287984,0.0991 0.332708,0.2652 0.02683,0.0996 0.06911,0.12054 0.154477,0.0764 0.03501,-0.0181 0.0894,-0.0329 0.120873,-0.0329 0.07629,0 0.165548,0.0918 0.16512,0.16988 -3.98e-4,0.0726 -0.01412,0.0956 -0.08725,0.14559 -0.04778,0.0327 -0.125422,0.0373 -0.628385,0.0372 -0.529918,-8e-5 -0.579266,-0.003 -0.644327,-0.043 z"
         id="path4696"
         sodipodi:nodetypes="ccccsccsscccc" />
      <path
         style="fill:#0000ff;stroke-width:0.0220486;fill-opacity:1"
         d="m 42.290538,152.72753 c -0.07963,-0.0347 -0.180773,-0.14867 -0.200041,-0.22544 -0.04441,-0.17694 0.04518,-0.38465 0.196983,-0.45668 0.06607,-0.0314 0.07691,-0.0483 0.08676,-0.13563 0.02131,-0.18905 0.181023,-0.34186 0.357297,-0.34186 0.05491,0 0.107425,-0.0226 0.178156,-0.0766 0.05517,-0.0421 0.142067,-0.088 0.193116,-0.10209 0.199441,-0.0549 0.444356,0.0553 0.534377,0.24039 0.03902,0.0802 0.04681,0.0853 0.101408,0.0663 0.126817,-0.0442 0.320731,0.0586 0.374495,0.19863 0.06317,0.16448 -0.0501,0.38308 -0.214468,0.41391 -0.06955,0.013 -0.07193,0.017 -0.06966,0.11645 0.003,0.12993 -0.03943,0.21885 -0.134986,0.28318 -0.0738,0.0497 -0.08435,0.0504 -0.705555,0.0496 -0.474309,-6.5e-4 -0.647305,-0.008 -0.697876,-0.0301 z m 1.313591,-0.13859 c 0.07313,-0.05 0.08685,-0.0729 0.08725,-0.14559 4.28e-4,-0.0781 -0.08883,-0.16988 -0.16512,-0.16988 -0.03147,0 -0.08586,0.0148 -0.120873,0.0329 -0.08536,0.0441 -0.127648,0.0232 -0.154477,-0.0764 -0.04472,-0.1661 -0.169056,-0.2652 -0.332708,-0.2652 -0.104847,0 -0.217181,0.06 -0.273643,0.14618 -0.03307,0.0505 -0.04763,0.0556 -0.12361,0.0434 -0.123516,-0.0198 -0.223622,0.0283 -0.272156,0.13055 -0.05325,0.11221 -0.01887,0.23628 0.08262,0.29817 0.06506,0.0397 0.114409,0.043 0.644327,0.043 0.502963,7e-5 0.580606,-0.005 0.628385,-0.0372 z m 0.320101,-0.45778 c 0.15366,-0.15366 -0.0385,-0.38345 -0.220785,-0.26402 -0.07318,0.0479 -0.136128,0.0104 -0.165516,-0.0987 -0.06753,-0.25077 -0.37742,-0.32756 -0.555657,-0.13768 -0.07676,0.0818 -0.08767,0.0862 -0.205684,0.0834 -0.114554,-0.003 -0.129828,0.003 -0.189035,0.0691 -0.04565,0.051 -0.06441,0.0949 -0.06441,0.15055 v 0.0785 l 0.09014,-0.0772 c 0.226441,-0.19382 0.555842,-0.14253 0.716458,0.11157 0.05737,0.0908 0.06633,0.0962 0.139977,0.0854 0.04328,-0.006 0.113413,0.002 0.155857,0.0182 0.128703,0.0495 0.236907,0.0426 0.298658,-0.0192 z"
         id="path4694" />
    </g>
  </g>
</svg>
